<svg xmlns="http://www.w3.org/2000/svg" xmlns:xlink="http://www.w3.org/1999/xlink" width="500" zoomAndPan="magnify" viewBox="0 0 375 374.999991" height="500" preserveAspectRatio="xMidYMid meet" version="1.0"><defs><clipPath id="ca9792c790"><path d="M 53.4375 0 L 321.9375 0 L 321.9375 375 L 53.4375 375 Z M 53.4375 0 " clip-rule="nonzero"/></clipPath><clipPath id="136c374f56"><path d="M 162.953125 251.363281 L 212.046875 251.363281 L 212.046875 312.570312 L 162.953125 312.570312 Z M 162.953125 251.363281 " clip-rule="nonzero"/></clipPath></defs><g clip-path="url(#ca9792c790)"><path fill="#003c97" d="M 300.574219 212.828125 L 197.996094 369.222656 C 195.46875 372.851562 191.839844 374.902344 187.421875 374.902344 C 183.160156 374.902344 179.371094 372.851562 177.003906 369.222656 L 74.269531 212.828125 C 61.011719 191.367188 53.4375 165.800781 53.4375 138.5 C 53.4375 62.117188 113.40625 0.0976562 187.421875 0.0976562 C 261.4375 0.0976562 321.5625 62.117188 321.5625 138.5 C 321.5625 165.800781 313.828125 191.367188 300.574219 212.828125 Z M 137.710938 167.378906 L 152.386719 167.378906 C 153.964844 167.378906 155.226562 168.800781 155.226562 170.378906 L 155.226562 182.054688 C 155.226562 185.371094 152.703125 188.050781 149.703125 188.050781 L 140.550781 188.050781 C 137.550781 188.050781 135.027344 185.371094 135.027344 182.054688 L 135.027344 170.378906 C 135.027344 168.800781 136.289062 167.378906 137.710938 167.378906 Z M 224.035156 167.378906 L 238.710938 167.378906 C 240.289062 167.378906 241.550781 168.800781 241.550781 170.378906 L 241.550781 182.054688 C 241.550781 185.371094 239.027344 188.050781 236.027344 188.050781 L 226.875 188.050781 C 223.71875 188.050781 221.351562 185.371094 221.351562 182.054688 L 221.351562 170.378906 C 221.351562 168.800781 222.613281 167.378906 224.035156 167.378906 Z M 160.910156 75.214844 L 215.667969 75.214844 C 218.984375 75.214844 219.929688 77.109375 220.5625 79.160156 L 225.925781 99.992188 C 227.03125 104.253906 224.664062 105.515625 222.457031 105.515625 L 154.121094 105.515625 C 151.914062 105.515625 149.386719 104.253906 150.492188 99.992188 L 156.015625 79.160156 C 156.488281 77.109375 157.59375 75.214844 160.910156 75.214844 Z M 230.503906 129.1875 C 236.183594 129.1875 240.761719 133.765625 240.761719 139.289062 C 240.761719 144.96875 236.183594 149.386719 230.503906 149.386719 C 224.980469 149.386719 220.402344 144.96875 220.402344 139.289062 C 220.402344 133.765625 224.980469 129.1875 230.503906 129.1875 Z M 145.917969 129.1875 C 151.597656 129.1875 156.015625 133.765625 156.015625 139.289062 C 156.015625 144.96875 151.597656 149.386719 145.917969 149.386719 C 140.394531 149.386719 135.816406 144.96875 135.816406 139.289062 C 135.816406 133.765625 140.394531 129.1875 145.917969 129.1875 Z M 159.015625 66.851562 L 217.5625 66.851562 C 224.980469 66.851562 227.664062 70.796875 229.871094 77.898438 L 237.449219 101.886719 C 238.394531 101.097656 239.5 100.625 240.761719 100.625 L 248.496094 100.625 C 251.175781 100.625 253.542969 102.992188 253.542969 105.671875 C 253.542969 108.515625 251.175781 110.722656 248.496094 110.722656 L 242.65625 110.722656 L 249.285156 118.773438 C 252.914062 123.035156 252.753906 128.714844 252.753906 134.238281 L 252.753906 152.703125 C 252.753906 160.121094 249.441406 162.800781 242.023438 162.800781 L 134.554688 162.800781 C 127.136719 162.800781 123.824219 160.121094 123.824219 152.703125 L 123.824219 134.238281 C 123.824219 128.714844 123.664062 123.035156 127.292969 118.773438 L 133.765625 110.722656 L 128.082031 110.722656 C 125.242188 110.722656 123.035156 108.515625 123.035156 105.671875 C 123.035156 102.992188 125.242188 100.625 128.082031 100.625 L 135.660156 100.625 C 136.921875 100.625 138.183594 101.097656 139.128906 101.886719 L 146.546875 77.898438 C 148.757812 70.796875 151.597656 66.851562 159.015625 66.851562 Z M 187.421875 32.289062 C 132.660156 32.289062 88.3125 78.214844 88.3125 134.710938 C 88.3125 191.367188 132.660156 237.132812 187.421875 237.132812 C 242.183594 237.132812 286.527344 191.367188 286.527344 134.710938 C 286.527344 78.214844 242.183594 32.289062 187.421875 32.289062 Z M 187.421875 32.289062 " fill-opacity="1" fill-rule="evenodd"/></g><g clip-path="url(#136c374f56)"><path fill="#003c97" d="M 162.953125 251.363281 L 212.046875 251.363281 L 212.046875 312.542969 L 162.953125 312.542969 Z M 162.953125 251.363281 " fill-opacity="1" fill-rule="nonzero"/></g></svg>